<svg xmlns="http://www.w3.org/2000/svg" xmlns:xlink="http://www.w3.org/1999/xlink" width="145" zoomAndPan="magnify" viewBox="0 0 108.75 23" height="76" preserveAspectRatio="xMidYMid meet" version="1.0"><defs><g/><clipPath id="8e4c667f6d"><path d="M 16 3 L 31.269531 3 L 31.269531 17.769531 L 16 17.769531 Z M 16 3 " clip-rule="nonzero"/></clipPath><clipPath id="ed8b5e903f"><path d="M 2.855469 2.804688 L 19 2.804688 L 19 17 L 2.855469 17 Z M 2.855469 2.804688 " clip-rule="nonzero"/></clipPath></defs><g clip-path="url(#8e4c667f6d)"><path fill="#111111" d="M 20.835938 5.355469 C 22.089844 3.191406 25.222656 3.191406 26.472656 5.355469 L 30.769531 12.765625 C 32.023438 14.929688 30.457031 17.632812 27.949219 17.632812 L 19.359375 17.632812 C 16.855469 17.632812 15.289062 14.929688 16.539062 12.765625 Z M 20.835938 5.355469 " fill-opacity="1" fill-rule="nonzero"/></g><g clip-path="url(#ed8b5e903f)"><path fill="#111111" d="M 7.628906 15.082031 C 8.882812 17.246094 12.015625 17.246094 13.265625 15.082031 L 17.5625 7.671875 C 18.816406 5.507812 17.25 2.804688 14.742188 2.804688 L 6.152344 2.804688 C 3.648438 2.804688 2.082031 5.507812 3.335938 7.671875 Z M 9.507812 13.230469 C 9.925781 13.953125 10.96875 13.953125 11.386719 13.230469 L 15.011719 6.976562 C 15.429688 6.253906 14.90625 5.355469 14.074219 5.355469 L 6.824219 5.355469 C 5.988281 5.355469 5.46875 6.253906 5.886719 6.976562 Z M 9.507812 13.230469 " fill-opacity="1" fill-rule="evenodd"/></g><g fill="#000000" fill-opacity="1"><g transform="translate(34.247867, 14.029587)"><g><path d="M 2.328125 -7.109375 L 2.328125 -1.171875 L 5.53125 -1.171875 L 5.53125 0 L 0.921875 0 L 0.921875 -7.109375 Z M 2.328125 -7.109375 "/></g></g></g><g fill="#000000" fill-opacity="1"><g transform="translate(40.013604, 14.029587)"><g><path d="M 3.125 0.109375 C 2.59375 0.109375 2.128906 0 1.734375 -0.21875 C 1.335938 -0.4375 1.03125 -0.753906 0.8125 -1.171875 C 0.59375 -1.585938 0.484375 -2.09375 0.484375 -2.6875 C 0.484375 -3.269531 0.59375 -3.769531 0.8125 -4.1875 C 1.03125 -4.613281 1.335938 -4.929688 1.734375 -5.140625 C 2.128906 -5.359375 2.59375 -5.46875 3.125 -5.46875 C 3.644531 -5.46875 4.101562 -5.359375 4.5 -5.140625 C 4.894531 -4.929688 5.203125 -4.613281 5.421875 -4.1875 C 5.648438 -3.769531 5.765625 -3.269531 5.765625 -2.6875 C 5.765625 -2.09375 5.648438 -1.585938 5.421875 -1.171875 C 5.203125 -0.753906 4.894531 -0.4375 4.5 -0.21875 C 4.101562 0 3.644531 0.109375 3.125 0.109375 Z M 3.125 -1.046875 C 3.957031 -1.046875 4.375 -1.59375 4.375 -2.6875 C 4.375 -3.25 4.265625 -3.660156 4.046875 -3.921875 C 3.835938 -4.191406 3.53125 -4.328125 3.125 -4.328125 C 2.289062 -4.328125 1.875 -3.78125 1.875 -2.6875 C 1.875 -1.59375 2.289062 -1.046875 3.125 -1.046875 Z M 3.125 -1.046875 "/></g></g></g><g fill="#000000" fill-opacity="1"><g transform="translate(46.256572, 14.029587)"><g><path d="M 3.75 0.109375 C 3.0625 0.109375 2.550781 -0.148438 2.21875 -0.671875 L 2.125 -0.640625 L 2.125 0 L 0.78125 0 L 0.78125 -7.53125 L 2.125 -7.53125 L 2.125 -4.734375 L 2.21875 -4.71875 C 2.40625 -4.96875 2.625 -5.15625 2.875 -5.28125 C 3.125 -5.40625 3.425781 -5.46875 3.78125 -5.46875 C 4.21875 -5.46875 4.597656 -5.363281 4.921875 -5.15625 C 5.242188 -4.957031 5.492188 -4.648438 5.671875 -4.234375 C 5.859375 -3.816406 5.953125 -3.300781 5.953125 -2.6875 C 5.953125 -2.070312 5.859375 -1.554688 5.671875 -1.140625 C 5.484375 -0.722656 5.222656 -0.410156 4.890625 -0.203125 C 4.554688 0.00390625 4.175781 0.109375 3.75 0.109375 Z M 3.34375 -1.046875 C 3.738281 -1.046875 4.039062 -1.175781 4.25 -1.4375 C 4.457031 -1.695312 4.5625 -2.113281 4.5625 -2.6875 C 4.5625 -3.25 4.457031 -3.660156 4.25 -3.921875 C 4.039062 -4.191406 3.738281 -4.328125 3.34375 -4.328125 C 2.96875 -4.328125 2.664062 -4.191406 2.4375 -3.921875 C 2.21875 -3.648438 2.109375 -3.238281 2.109375 -2.6875 C 2.109375 -2.132812 2.21875 -1.722656 2.4375 -1.453125 C 2.664062 -1.179688 2.96875 -1.046875 3.34375 -1.046875 Z M 3.34375 -1.046875 "/></g></g></g><g fill="#000000" fill-opacity="1"><g transform="translate(52.689465, 14.029587)"><g><path d="M 3.75 0.109375 C 3.0625 0.109375 2.550781 -0.148438 2.21875 -0.671875 L 2.125 -0.640625 L 2.125 0 L 0.78125 0 L 0.78125 -7.53125 L 2.125 -7.53125 L 2.125 -4.734375 L 2.21875 -4.71875 C 2.40625 -4.96875 2.625 -5.15625 2.875 -5.28125 C 3.125 -5.40625 3.425781 -5.46875 3.78125 -5.46875 C 4.21875 -5.46875 4.597656 -5.363281 4.921875 -5.15625 C 5.242188 -4.957031 5.492188 -4.648438 5.671875 -4.234375 C 5.859375 -3.816406 5.953125 -3.300781 5.953125 -2.6875 C 5.953125 -2.070312 5.859375 -1.554688 5.671875 -1.140625 C 5.484375 -0.722656 5.222656 -0.410156 4.890625 -0.203125 C 4.554688 0.00390625 4.175781 0.109375 3.75 0.109375 Z M 3.34375 -1.046875 C 3.738281 -1.046875 4.039062 -1.175781 4.25 -1.4375 C 4.457031 -1.695312 4.5625 -2.113281 4.5625 -2.6875 C 4.5625 -3.25 4.457031 -3.660156 4.25 -3.921875 C 4.039062 -4.191406 3.738281 -4.328125 3.34375 -4.328125 C 2.96875 -4.328125 2.664062 -4.191406 2.4375 -3.921875 C 2.21875 -3.648438 2.109375 -3.238281 2.109375 -2.6875 C 2.109375 -2.132812 2.21875 -1.722656 2.4375 -1.453125 C 2.664062 -1.179688 2.96875 -1.046875 3.34375 -1.046875 Z M 3.34375 -1.046875 "/></g></g></g><g fill="#000000" fill-opacity="1"><g transform="translate(59.122358, 14.029587)"><g><path d="M 1.1875 2.28125 C 0.957031 2.28125 0.75 2.257812 0.5625 2.21875 C 0.375 2.1875 0.222656 2.140625 0.109375 2.078125 L 0.328125 1 L 0.40625 0.96875 C 0.488281 1.007812 0.585938 1.039062 0.703125 1.0625 C 0.828125 1.09375 0.953125 1.109375 1.078125 1.109375 C 1.296875 1.109375 1.476562 1.078125 1.625 1.015625 C 1.769531 0.960938 1.890625 0.867188 1.984375 0.734375 C 2.085938 0.609375 2.179688 0.425781 2.265625 0.1875 L 0.109375 -5.375 L 1.53125 -5.375 L 2.859375 -1.640625 L 2.984375 -1.640625 L 4.28125 -5.375 L 5.65625 -5.375 L 3.5 0.328125 C 3.320312 0.796875 3.128906 1.171875 2.921875 1.453125 C 2.722656 1.734375 2.484375 1.941406 2.203125 2.078125 C 1.921875 2.210938 1.582031 2.28125 1.1875 2.28125 Z M 1.1875 2.28125 "/></g></g></g><g fill="#000000" fill-opacity="1"><g transform="translate(64.888095, 14.029587)"><g/></g></g><g fill="#ff914d" fill-opacity="1"><g transform="translate(67.242329, 14.029587)"><g><path d="M 3.15625 0.109375 C 2.664062 0.109375 2.226562 0.046875 1.84375 -0.078125 C 1.457031 -0.203125 1.132812 -0.363281 0.875 -0.5625 C 0.613281 -0.757812 0.414062 -0.976562 0.28125 -1.21875 L 1.0625 -2.15625 L 1.1875 -2.15625 C 1.394531 -1.832031 1.664062 -1.578125 2 -1.390625 C 2.332031 -1.203125 2.71875 -1.109375 3.15625 -1.109375 C 3.53125 -1.109375 3.8125 -1.1875 4 -1.34375 C 4.195312 -1.507812 4.296875 -1.734375 4.296875 -2.015625 C 4.296875 -2.179688 4.265625 -2.320312 4.203125 -2.4375 C 4.140625 -2.550781 4.035156 -2.644531 3.890625 -2.71875 C 3.753906 -2.800781 3.5625 -2.875 3.3125 -2.9375 L 2.40625 -3.140625 C 1.757812 -3.285156 1.28125 -3.523438 0.96875 -3.859375 C 0.65625 -4.203125 0.5 -4.644531 0.5 -5.1875 C 0.5 -5.59375 0.597656 -5.945312 0.796875 -6.25 C 1.003906 -6.5625 1.300781 -6.800781 1.6875 -6.96875 C 2.070312 -7.132812 2.53125 -7.21875 3.0625 -7.21875 C 3.613281 -7.21875 4.082031 -7.144531 4.46875 -7 C 4.863281 -6.851562 5.195312 -6.632812 5.46875 -6.34375 L 4.765625 -5.390625 L 4.640625 -5.390625 C 4.441406 -5.597656 4.210938 -5.753906 3.953125 -5.859375 C 3.691406 -5.960938 3.394531 -6.015625 3.0625 -6.015625 C 2.675781 -6.015625 2.378906 -5.945312 2.171875 -5.8125 C 1.972656 -5.675781 1.875 -5.488281 1.875 -5.25 C 1.875 -5.019531 1.941406 -4.835938 2.078125 -4.703125 C 2.222656 -4.578125 2.472656 -4.476562 2.828125 -4.40625 L 3.75 -4.203125 C 4.445312 -4.054688 4.953125 -3.804688 5.265625 -3.453125 C 5.578125 -3.109375 5.734375 -2.65625 5.734375 -2.09375 C 5.734375 -1.65625 5.632812 -1.269531 5.4375 -0.9375 C 5.25 -0.601562 4.960938 -0.34375 4.578125 -0.15625 C 4.191406 0.0195312 3.71875 0.109375 3.15625 0.109375 Z M 3.15625 0.109375 "/></g></g></g><g fill="#ff914d" fill-opacity="1"><g transform="translate(73.358685, 14.029587)"><g><path d="M 3.703125 -1.28125 L 4.046875 -0.28125 C 3.898438 -0.164062 3.71875 -0.0703125 3.5 0 C 3.28125 0.0703125 3.03125 0.109375 2.75 0.109375 C 2.175781 0.109375 1.738281 -0.046875 1.4375 -0.359375 C 1.132812 -0.679688 0.984375 -1.144531 0.984375 -1.75 L 0.984375 -4.296875 L 0.15625 -4.296875 L 0.15625 -5.375 L 0.984375 -5.375 L 0.984375 -6.421875 L 2.328125 -6.640625 L 2.328125 -5.375 L 3.84375 -5.375 L 3.84375 -4.296875 L 2.328125 -4.296875 L 2.328125 -1.84375 C 2.328125 -1.582031 2.378906 -1.390625 2.484375 -1.265625 C 2.597656 -1.140625 2.757812 -1.078125 2.96875 -1.078125 C 3.207031 -1.078125 3.421875 -1.144531 3.609375 -1.28125 Z M 3.703125 -1.28125 "/></g></g></g><g fill="#ff914d" fill-opacity="1"><g transform="translate(77.532032, 14.029587)"><g><path d="M 2.453125 0.109375 C 1.847656 0.109375 1.398438 -0.0546875 1.109375 -0.390625 C 0.828125 -0.722656 0.6875 -1.195312 0.6875 -1.8125 L 0.6875 -5.375 L 2.046875 -5.375 L 2.046875 -1.984375 C 2.046875 -1.648438 2.113281 -1.40625 2.25 -1.25 C 2.394531 -1.101562 2.613281 -1.03125 2.90625 -1.03125 C 3.28125 -1.03125 3.570312 -1.148438 3.78125 -1.390625 C 3.988281 -1.640625 4.09375 -2.03125 4.09375 -2.5625 L 4.09375 -5.375 L 5.4375 -5.375 L 5.4375 0 L 4.140625 0 L 4.140625 -0.78125 L 4.046875 -0.8125 C 3.867188 -0.5 3.65625 -0.265625 3.40625 -0.109375 C 3.15625 0.0351562 2.835938 0.109375 2.453125 0.109375 Z M 2.453125 0.109375 "/></g></g></g><g fill="#ff914d" fill-opacity="1"><g transform="translate(83.745782, 14.029587)"><g><path d="M 2.65625 0.109375 C 2.226562 0.109375 1.847656 0.00390625 1.515625 -0.203125 C 1.191406 -0.410156 0.9375 -0.722656 0.75 -1.140625 C 0.570312 -1.554688 0.484375 -2.070312 0.484375 -2.6875 C 0.484375 -3.300781 0.578125 -3.816406 0.765625 -4.234375 C 0.953125 -4.648438 1.210938 -4.957031 1.546875 -5.15625 C 1.890625 -5.363281 2.28125 -5.46875 2.71875 -5.46875 C 3.050781 -5.46875 3.335938 -5.410156 3.578125 -5.296875 C 3.828125 -5.179688 4.035156 -5.003906 4.203125 -4.765625 L 4.3125 -4.78125 L 4.3125 -7.53125 L 5.65625 -7.53125 L 5.65625 0 L 4.3125 0 L 4.3125 -0.703125 L 4.203125 -0.71875 C 4.054688 -0.457031 3.851562 -0.253906 3.59375 -0.109375 C 3.332031 0.0351562 3.019531 0.109375 2.65625 0.109375 Z M 3.09375 -1.046875 C 3.46875 -1.046875 3.765625 -1.179688 3.984375 -1.453125 C 4.210938 -1.722656 4.328125 -2.132812 4.328125 -2.6875 C 4.328125 -3.238281 4.210938 -3.648438 3.984375 -3.921875 C 3.765625 -4.191406 3.46875 -4.328125 3.09375 -4.328125 C 2.695312 -4.328125 2.394531 -4.191406 2.1875 -3.921875 C 1.976562 -3.660156 1.875 -3.25 1.875 -2.6875 C 1.875 -2.113281 1.976562 -1.695312 2.1875 -1.4375 C 2.394531 -1.175781 2.695312 -1.046875 3.09375 -1.046875 Z M 3.09375 -1.046875 "/></g></g></g><g fill="#ff914d" fill-opacity="1"><g transform="translate(90.183539, 14.029587)"><g><path d="M 1.453125 -6.015625 C 1.203125 -6.015625 1 -6.085938 0.84375 -6.234375 C 0.695312 -6.378906 0.625 -6.570312 0.625 -6.8125 C 0.625 -7.039062 0.695312 -7.226562 0.84375 -7.375 C 1 -7.519531 1.203125 -7.59375 1.453125 -7.59375 C 1.609375 -7.59375 1.75 -7.554688 1.875 -7.484375 C 2 -7.421875 2.097656 -7.328125 2.171875 -7.203125 C 2.242188 -7.085938 2.28125 -6.957031 2.28125 -6.8125 C 2.28125 -6.65625 2.242188 -6.515625 2.171875 -6.390625 C 2.097656 -6.273438 2 -6.179688 1.875 -6.109375 C 1.75 -6.046875 1.609375 -6.015625 1.453125 -6.015625 Z M 0.78125 0 L 0.78125 -5.375 L 2.125 -5.375 L 2.125 0 Z M 0.78125 0 "/></g></g></g><g fill="#ff914d" fill-opacity="1"><g transform="translate(93.076147, 14.029587)"><g><path d="M 3.125 0.109375 C 2.59375 0.109375 2.128906 0 1.734375 -0.21875 C 1.335938 -0.4375 1.03125 -0.753906 0.8125 -1.171875 C 0.59375 -1.585938 0.484375 -2.09375 0.484375 -2.6875 C 0.484375 -3.269531 0.59375 -3.769531 0.8125 -4.1875 C 1.03125 -4.613281 1.335938 -4.929688 1.734375 -5.140625 C 2.128906 -5.359375 2.59375 -5.46875 3.125 -5.46875 C 3.644531 -5.46875 4.101562 -5.359375 4.5 -5.140625 C 4.894531 -4.929688 5.203125 -4.613281 5.421875 -4.1875 C 5.648438 -3.769531 5.765625 -3.269531 5.765625 -2.6875 C 5.765625 -2.09375 5.648438 -1.585938 5.421875 -1.171875 C 5.203125 -0.753906 4.894531 -0.4375 4.5 -0.21875 C 4.101562 0 3.644531 0.109375 3.125 0.109375 Z M 3.125 -1.046875 C 3.957031 -1.046875 4.375 -1.59375 4.375 -2.6875 C 4.375 -3.25 4.265625 -3.660156 4.046875 -3.921875 C 3.835938 -4.191406 3.53125 -4.328125 3.125 -4.328125 C 2.289062 -4.328125 1.875 -3.78125 1.875 -2.6875 C 1.875 -1.59375 2.289062 -1.046875 3.125 -1.046875 Z M 3.125 -1.046875 "/></g></g></g><g fill="#ff914d" fill-opacity="1"><g transform="translate(99.319116, 14.029587)"><g><path d="M 2.515625 0.109375 C 2.148438 0.109375 1.8125 0.0664062 1.5 -0.015625 C 1.195312 -0.109375 0.9375 -0.226562 0.71875 -0.375 C 0.507812 -0.53125 0.351562 -0.707031 0.25 -0.90625 L 1 -1.703125 L 1.09375 -1.703125 C 1.269531 -1.460938 1.476562 -1.28125 1.71875 -1.15625 C 1.96875 -1.039062 2.234375 -0.984375 2.515625 -0.984375 C 2.785156 -0.984375 2.984375 -1.03125 3.109375 -1.125 C 3.242188 -1.21875 3.3125 -1.351562 3.3125 -1.53125 C 3.3125 -1.664062 3.265625 -1.78125 3.171875 -1.875 C 3.078125 -1.96875 2.921875 -2.039062 2.703125 -2.09375 L 2 -2.265625 C 1.46875 -2.390625 1.078125 -2.582031 0.828125 -2.84375 C 0.585938 -3.101562 0.46875 -3.4375 0.46875 -3.84375 C 0.46875 -4.175781 0.550781 -4.460938 0.71875 -4.703125 C 0.882812 -4.953125 1.125 -5.140625 1.4375 -5.265625 C 1.75 -5.398438 2.109375 -5.46875 2.515625 -5.46875 C 3.003906 -5.46875 3.40625 -5.394531 3.71875 -5.25 C 4.039062 -5.113281 4.289062 -4.929688 4.46875 -4.703125 L 3.75 -3.921875 L 3.65625 -3.921875 C 3.5 -4.085938 3.328125 -4.207031 3.140625 -4.28125 C 2.953125 -4.363281 2.742188 -4.40625 2.515625 -4.40625 C 1.984375 -4.40625 1.71875 -4.238281 1.71875 -3.90625 C 1.71875 -3.769531 1.765625 -3.65625 1.859375 -3.5625 C 1.960938 -3.476562 2.140625 -3.410156 2.390625 -3.359375 L 3.0625 -3.21875 C 3.601562 -3.09375 4 -2.898438 4.25 -2.640625 C 4.5 -2.390625 4.625 -2.046875 4.625 -1.609375 C 4.625 -1.265625 4.539062 -0.960938 4.375 -0.703125 C 4.207031 -0.453125 3.960938 -0.253906 3.640625 -0.109375 C 3.328125 0.0351562 2.953125 0.109375 2.515625 0.109375 Z M 2.515625 0.109375 "/></g></g></g></svg>